<?xml version="1.0" encoding="UTF-8"?> <svg xmlns="http://www.w3.org/2000/svg" width="60" height="60" viewBox="0 0 60 60" fill="none"> <path fill-rule="evenodd" clip-rule="evenodd" d="M58.4413 10.3612C59.1798 12.2604 59.6953 14.4521 59.8359 17.6402C59.9764 20.8401 59.9883 21.8597 59.9883 30.0059C59.9883 38.152 59.9531 39.1716 59.8125 42.3716C59.672 45.5596 59.156 47.7399 58.4179 49.6505C56.8589 53.6824 53.6709 56.8704 49.6386 58.4294C47.7399 59.1679 45.5481 59.6834 42.3601 59.824C41.9623 59.8415 41.5983 59.8574 41.25 59.8718V39.375H46.875L50.625 30H41.25V22.5C41.25 20.5973 42.6694 20.6083 44.5064 20.6225C44.6679 20.6237 44.8327 20.625 45 20.625H48.75V11.25H41.25C35.0363 11.25 30 16.2863 30 22.5V30H22.5V39.375H30V59.9998C29.9981 59.9998 29.9963 59.9998 29.9944 59.9998C21.8483 59.9998 20.8282 59.965 17.6287 59.824C14.4402 59.6834 12.2604 59.1679 10.3498 58.4294C8.35719 57.6794 6.54043 56.4954 5.04004 54.9717C3.51631 53.4713 2.33276 51.6664 1.57089 49.6505C0.832376 47.7513 0.316376 45.5596 0.175816 42.3716C0.0352546 39.1716 0 38.152 0 30.0059C0 21.8597 0.0352546 20.8401 0.18772 17.6283C0.328281 14.4402 0.843823 12.2604 1.58234 10.3498C2.33276 8.35719 3.51631 6.54043 5.04004 5.04005C6.54043 3.50441 8.34528 2.3323 10.3617 1.57044C12.2604 0.832377 14.4521 0.316377 17.6402 0.175816C20.8401 0.0352547 21.8597 0 30.0058 0C38.152 0 39.1716 0.0352547 42.3834 0.18772C45.5715 0.328281 47.7518 0.843823 49.6619 1.58234C51.6545 2.3323 53.4713 3.51631 54.9716 5.04005C56.5073 6.54043 57.6794 8.34529 58.4413 10.3612Z" fill="#949494"></path> </svg> 