<?xml version="1.0" encoding="UTF-8"?> <svg xmlns="http://www.w3.org/2000/svg" width="60" height="60" viewBox="0 0 60 60" fill="none"> <path fill-rule="evenodd" clip-rule="evenodd" d="M58.4414 10.3613C59.1797 12.2605 59.6953 14.4521 59.8359 17.6401C59.9766 20.8401 59.9883 21.8596 59.9883 30.0059C59.9883 38.1521 59.9531 39.1716 59.8125 42.3716C59.6719 45.5596 59.1558 47.74 58.418 49.6504C56.8589 53.6824 53.6709 56.8704 49.6387 58.4294C47.7397 59.168 45.5483 59.6833 42.3599 59.824C39.1602 59.9651 38.1406 59.9998 29.9946 59.9998C25.1299 59.9998 22.8066 59.9873 21.0425 59.9473C19.8525 59.9204 18.9175 59.8809 17.6289 59.824C14.4404 59.6833 12.2603 59.168 10.3496 58.4294C8.35742 57.6794 6.54053 56.4954 5.04004 54.9717C3.51611 53.4712 2.33252 51.6665 1.5708 49.6504C0.83252 47.7512 0.316406 45.5596 0.175781 42.3716C0.0351562 39.1716 0 38.1521 0 30.0059C0 21.8596 0.0351562 20.8401 0.1875 17.6282C0.328125 14.4402 0.84375 12.2605 1.58252 10.3499C2.33252 8.35718 3.51611 6.54053 5.04004 5.04004C6.54053 3.50439 8.34521 2.33228 10.3618 1.57056C12.2603 0.832275 14.4521 0.316406 17.6401 0.175781C20.8403 0.0351562 21.8599 0 30.0059 0C38.1519 0 39.1714 0.0351562 42.3833 0.187744C45.5713 0.328369 47.752 0.84375 49.6621 1.58228C51.6543 2.33228 53.4712 3.51636 54.9717 5.04004C56.5073 6.54053 57.6792 8.34521 58.4414 10.3613ZM45.6709 34.3499C48.8711 37.3201 49.5361 38.7651 49.6436 38.9451C50.9688 41.1428 48.1733 41.3152 48.1733 41.3152L42.8306 41.3904C42.8306 41.3904 41.6831 41.6179 40.1729 40.5803C39.3833 40.0378 38.6113 39.1526 37.876 38.3093C36.7505 37.0188 35.71 35.8262 34.8223 36.1074C33.3325 36.5798 33.3799 39.7876 33.3799 39.7876C33.3799 39.7876 33.3848 40.0544 33.3057 40.3438C33.2583 40.5181 33.1802 40.7004 33.0522 40.8376C32.6846 41.2354 31.9624 41.3152 31.9624 41.3152H29.5718C29.5718 41.3152 24.2964 41.6328 19.6489 36.7949C14.5835 31.5171 10.1079 21.0488 10.1079 21.0488C10.1079 21.0488 9.85059 20.3638 10.1304 20.0312C10.4458 19.6587 11.3032 19.6338 11.3032 19.6338L17.0186 19.5986C17.0186 19.5986 17.5586 19.6887 17.9438 19.9712C18.2612 20.2036 18.4385 20.6387 18.4385 20.6387C18.4385 20.6387 19.3638 22.9763 20.5864 25.0891C22.9741 29.2168 24.0864 30.1194 24.8989 29.677C26.0815 29.032 25.7266 23.844 25.7266 23.844C25.7266 23.844 25.749 21.9587 25.1318 21.1213C24.6543 20.4712 23.7539 20.2812 23.3564 20.2288C23.1323 20.1992 23.3193 19.8286 23.6846 19.4929C23.8442 19.3459 24.0381 19.2056 24.2466 19.1035C25.2744 18.6011 27.0918 18.571 29.2368 18.5935C30.9097 18.6111 31.3896 18.7161 32.0449 18.8735C33.562 19.2395 33.5146 20.4136 33.4126 22.9473C33.3823 23.7034 33.3472 24.5808 33.3472 25.594C33.3472 27.0042 33.0923 28.9919 34.1099 29.6494C34.5474 29.9319 35.6201 29.6919 38.2979 25.144C39.5679 22.989 40.5205 20.4536 40.5205 20.4536C40.5205 20.4536 40.728 20.0037 41.0503 19.8086C41.3828 19.6111 41.8281 19.6711 41.8281 19.6711L47.8384 19.6362C47.8384 19.6362 49.646 19.4211 49.9385 20.2363C50.2461 21.0913 49.2637 23.0913 46.8057 26.3667C44.4717 29.4771 43.3374 30.6194 43.4438 31.6316C43.5215 32.3696 44.2583 33.0383 45.6709 34.3499Z" fill="#949494"></path> </svg> 