<?xml version="1.0" encoding="UTF-8"?> <svg xmlns="http://www.w3.org/2000/svg" width="60" height="60" viewBox="0 0 60 60" fill="none"> <path fill-rule="evenodd" clip-rule="evenodd" d="M59.8359 17.6402C59.6953 14.4521 59.1798 12.2604 58.4413 10.3612C57.6794 8.34529 56.5073 6.54043 54.9716 5.04005C53.4713 3.51631 51.6545 2.3323 49.6619 1.58234C47.7518 0.843823 45.5715 0.328281 42.3834 0.18772C39.1716 0.0352547 38.152 0 30.0058 0C21.8597 0 20.8401 0.0352547 17.6402 0.175816C14.4521 0.316377 12.2604 0.832377 10.3617 1.57044C8.34528 2.3323 6.54043 3.50441 5.04004 5.04005C3.51631 6.54043 2.33276 8.35719 1.58234 10.3498C0.843823 12.2604 0.328281 14.4402 0.18772 17.6283C0.0352546 20.8401 0 21.8597 0 30.0059C0 38.152 0.0352546 39.1716 0.175816 42.3716C0.316376 45.5596 0.832376 47.7513 1.57089 49.6505C2.33276 51.6664 3.51631 53.4713 5.04004 54.9717C6.54043 56.4954 8.35719 57.6794 10.3498 58.4294C12.2604 59.1679 14.4402 59.6834 17.6287 59.824C20.8282 59.965 21.8483 59.9998 29.9944 59.9998C38.1405 59.9998 39.1602 59.965 42.3601 59.824C45.5481 59.6834 47.7399 59.1679 49.6386 58.4294C53.6709 56.8704 56.8589 53.6824 58.4179 49.6505C59.156 47.7399 59.672 45.5596 59.8125 42.3716C59.9531 39.1716 59.9883 38.152 59.9883 30.0059C59.9883 21.8597 59.9764 20.8401 59.8359 17.6402ZM30.1114 14.5928C21.6022 14.5928 14.6982 21.4963 14.6982 30.0059C14.6982 38.5156 21.6022 45.4191 30.1114 45.4191C38.6211 45.4191 45.5246 38.5156 45.5246 30.0059C45.5246 21.4963 38.6211 14.5928 30.1114 14.5928ZM30.1114 40.0041C24.5911 40.0041 20.1133 35.5267 20.1133 30.0059C20.1133 24.4851 24.5911 20.0078 30.1114 20.0078C35.6322 20.0078 40.1095 24.4851 40.1095 30.0059C40.1095 35.5267 35.6322 40.0041 30.1114 40.0041ZM46.1339 17.5816C48.1215 17.5816 49.7327 15.9704 49.7327 13.9833C49.7327 11.9957 48.1215 10.385 46.1339 10.385C44.1468 10.385 42.5356 11.9957 42.5356 13.9833C42.5356 15.9704 44.1468 17.5816 46.1339 17.5816Z" fill="#949494"></path> </svg> 