<?xml version="1.0" encoding="UTF-8"?> <svg xmlns="http://www.w3.org/2000/svg" width="1074" height="374" viewBox="0 0 1074 374" fill="none"> <path fill-rule="evenodd" clip-rule="evenodd" d="M265.278 153.752H163.491L222.1 33.4678H67.8709L0.0126953 235.474H95.6334L47.8164 371.186L265.278 153.752Z" fill="#949494"></path> <path d="M430.13 96.8627C424.015 105.223 413.079 109.73 400.524 109.73C376.396 109.73 360.782 94.4461 360.782 71.5988C360.782 50.5152 376.226 33.4678 399.076 33.4678C411.472 33.4678 422.097 36.8511 428.693 43.7613L417.586 62.755C412.442 57.5953 407.605 55.9885 402.131 55.9885C394.569 55.9885 386.533 61.3049 386.533 71.5988C386.533 81.4091 394.895 87.2742 402.457 87.2742C409.538 87.2742 414.531 83.8912 418.867 79.2276L430.13 96.8627Z" fill="#949494"></path> <path d="M444.617 40.5479C450.406 37.0079 461.353 33.4678 471.493 33.4678C493.533 33.4678 501.543 44.5712 501.543 64.1921V107.796H480.637V101.2C477.097 106.19 469.534 108.763 461.642 108.763C448.576 108.763 438.792 100.559 438.792 85.9159C438.792 69.5085 450.55 61.9451 464.92 61.9451C471.349 61.9451 476.823 64.1921 479.082 65.9684C479.567 57.2816 475.541 53.5716 469.101 53.5716C460.572 53.5716 455.098 56.3151 450.587 58.0785L444.617 40.5479ZM479.056 84.9621V80.4555C476.341 78.7037 473.138 77.862 469.912 78.0519C465.886 78.0519 462.987 79.9719 462.987 83.5123C462.987 86.7387 465.886 88.6721 469.912 88.6721C474.708 88.6591 477.608 86.8824 479.056 84.9491V84.9621Z" fill="#949494"></path> <path d="M517.675 107.796V35.4008H541.807V73.2051L567.557 35.4008H591.689V107.796H567.557V69.9917L541.807 107.796H517.675ZM548.562 0C548.562 6.44006 550.977 9.327 555.328 9.327C559.024 9.327 561.443 6.44006 561.443 0H582.345C582.345 14.9571 573.501 27.354 555.317 27.354C535.352 27.354 527.63 15.127 527.63 0H548.562Z" fill="#949494"></path> <path d="M603.758 35.4023H669.735V59.5296H648.833V107.797H624.664V59.5296H603.758V35.4023Z" fill="#949494"></path> <path d="M359.175 219.941L371.404 205.141C375.1 209.478 383.633 213.658 390.388 213.658C397.795 213.658 400.839 211.411 400.839 208.511C400.839 205.611 398.421 203.038 393.117 203.038H379.27V186.957H392.332C397.324 186.957 399.258 184.057 399.258 181.157C399.258 177.944 396.032 176.011 389.918 176.011C382.351 176.011 375.544 180.844 371.415 184.384L361.435 169.897C368.359 161.537 379.622 156.704 394.58 156.704C414.857 156.704 424.997 165.077 424.997 177.944C424.997 184.867 419.849 191.007 411.801 193.554V193.868C421.782 196.128 426.6 202.555 426.6 210.928C426.6 224.448 413.094 232.966 392.332 232.966C378 232.966 364.479 227.179 359.175 219.941Z" fill="#949494"></path> <path d="M443.651 163.784C449.439 160.244 460.387 156.704 470.527 156.704C492.566 156.704 500.577 167.807 500.577 187.441V231.045H479.645V224.514C476.104 229.491 468.542 232.064 460.65 232.064C447.584 232.064 437.799 223.86 437.799 209.217C437.799 192.81 449.558 185.246 463.927 185.246C470.356 185.246 475.83 187.506 478.089 189.27C478.574 180.583 474.549 176.886 468.108 176.886C459.579 176.886 454.102 179.616 449.61 181.392L443.651 163.784ZM478.089 208.198V203.691C475.378 201.927 472.175 201.08 468.945 201.274C464.92 201.274 462.02 203.208 462.02 206.748C462.02 209.961 464.92 211.895 468.945 211.895C473.741 211.895 476.641 210.118 478.089 208.198Z" fill="#949494"></path> <path d="M563.376 181.21H540.84V231.097H516.709V158.689H587.508V231.097H563.376V181.21Z" fill="#949494"></path> <path d="M651.237 231.048C640.615 256.951 633.845 263.222 622.753 263.222C616.372 263.202 610.228 260.792 605.536 256.468L613.258 238.284C615.261 239.802 617.661 240.709 620.168 240.897C623.394 240.897 625.642 238.48 627.094 234.94L628.701 231.021L596.352 158.613H625.487L637.871 191.754C639.008 195.015 639.926 198.349 640.615 201.734C640.848 198.303 641.437 194.905 642.378 191.597L651.877 158.613H679.39L651.237 231.048Z" fill="#949494"></path> <path d="M750.67 220.098C744.556 228.459 733.686 232.966 721.069 232.966C696.937 232.966 681.323 217.682 681.323 194.835C681.323 173.764 696.767 156.704 719.617 156.704C732.016 156.704 742.638 160.087 749.233 166.997L738.131 185.991C732.983 180.844 728.15 179.224 722.672 179.224C715.11 179.224 707.073 184.541 707.073 194.835C707.073 204.658 715.436 210.445 723.002 210.445C730.083 210.445 735.071 207.061 739.408 202.398L750.67 220.098Z" fill="#949494"></path> <path d="M755.818 158.638H821.795V182.766H800.893V231.099H776.761V182.766H755.859L755.818 158.638Z" fill="#949494"></path> <path d="M833.869 231.046V158.638H858.011V196.443L883.747 158.638H907.893V231.046H883.747V193.229L858.011 231.046H833.869Z" fill="#949494"></path> <path d="M971.452 182.765H958.741L958.415 185.991C954.716 223.639 946.187 233.018 922.055 233.018L919.966 209.505C927.047 210.314 933.958 203.548 935.08 181.184L936.217 158.664H995.598V231.072H971.452V182.765Z" fill="#949494"></path> <path d="M1015.06 163.784C1020.85 160.244 1031.8 156.704 1041.94 156.704C1063.98 156.704 1071.99 167.807 1071.99 187.441V231.045H1051.08V224.514C1047.54 229.491 1039.98 232.064 1032.09 232.064C1019.02 232.064 1009.24 223.86 1009.24 209.217C1009.24 192.81 1021 185.246 1035.37 185.246C1041.79 185.246 1047.27 187.506 1049.53 189.27C1050.01 180.583 1045.99 176.886 1039.55 176.886C1031.01 176.886 1025.54 179.616 1021.05 181.392L1015.06 163.784ZM1049.5 208.198V203.691C1046.79 201.929 1043.58 201.082 1040.36 201.274C1036.33 201.274 1033.43 203.208 1033.43 206.748C1033.43 209.961 1036.33 211.895 1040.36 211.895C1045.15 211.895 1048.05 210.118 1049.5 208.198Z" fill="#949494"></path> <path d="M364.806 281.874H386.533L408.246 306.498L428.367 281.874H449.439V354.282H425.308V318.725L407.79 338.829H407.305L389.014 318.725V354.282H364.806V281.874Z" fill="#949494"></path> <path d="M503.343 279.939C528.167 279.939 543.581 296.36 543.581 318.07C543.581 339.781 528.127 356.215 503.343 356.215C478.56 356.215 463.116 339.794 463.116 318.07C463.116 296.347 478.574 279.939 503.343 279.939ZM503.343 333.681C511.561 333.681 517.831 327.894 517.831 318.07C517.831 308.743 511.391 302.473 503.343 302.473C495.621 302.473 488.866 308.26 488.866 318.07C488.866 327.254 495.14 333.681 503.343 333.681Z" fill="#949494"></path> <path d="M601.147 306.014H588.433L588.122 309.227C584.412 346.875 575.879 356.254 551.747 356.254L549.658 332.741C556.739 333.551 563.65 326.797 564.787 304.433L565.909 281.899H625.29V354.308H601.147V306.014Z" fill="#949494"></path> <path d="M690.497 329.345H667.161V354.282H643.03V281.874H667.161V306.811H690.497V281.874H714.64V354.282H690.497V329.345Z" fill="#949494"></path> <path d="M732.331 354.281V281.873H756.474V319.677L782.224 281.86H806.355V354.268H782.224V316.385L756.474 354.268L732.331 354.281Z" fill="#949494"></path> <path d="M887.261 281.874V354.282H863.133V335.772H857.345L845.912 354.282H818.399L835.617 330.468C830.469 327.725 823.547 321.324 823.547 309.071C823.547 294.271 834.65 281.874 862.322 281.874H887.261ZM858.782 318.072H863.133V302.788H858.522C852.719 302.788 849.375 307.138 849.375 311.005C849.375 314.871 853.504 318.072 858.808 318.072H858.782Z" fill="#949494"></path> </svg> 