<?xml version="1.0" encoding="UTF-8"?> <!-- Generator: Adobe Illustrator 25.2.0, SVG Export Plug-In . SVG Version: 6.00 Build 0) --> <svg xmlns="http://www.w3.org/2000/svg" xmlns:xlink="http://www.w3.org/1999/xlink" id="Слой_1" x="0px" y="0px" width="512px" height="512px" viewBox="0 0 512 512" style="enable-background:new 0 0 512 512;" xml:space="preserve"> <style type="text/css"> .st0{stroke:#FFFFFF;stroke-width:10;stroke-miterlimit:10;} </style> <path class="st0" d="M503.5,0H8.5C3.8,0,0,3.8,0,8.5v281.6c0,4.7,3.8,8.5,8.5,8.5h145.1v204.8c0,4.7,3.8,8.5,8.5,8.5h341.3 c4.7,0,8.5-3.8,8.5-8.5V8.5C512,3.8,508.2,0,503.5,0z M494.9,494.9H170.7V290.1c0-4.7-3.8-8.5-8.5-8.5H17.1V17.1h477.9V494.9z"></path> <path class="st0" d="M42.7,264.5h119.5c4.7,0,8.5-3.8,8.5-8.5v-51.2h17.1V256c0,4.7,3.8,8.5,8.5,8.5h110.9v17.1H196.3 c-4.7,0-8.5,3.8-8.5,8.5v179.2c0,4.7,3.8,8.5,8.5,8.5h127.3c0.3,0.1,0.7,0.2,1,0.2h0l50.7-0.2h94.1c4.7,0,8.5-3.8,8.5-8.5V290.1 c0-4.7-3.8-8.5-8.5-8.5h-34.1v-17.1h34.1c4.7,0,8.5-3.8,8.5-8.5V42.7c0-4.7-3.8-8.5-8.5-8.5H196.3c-4.7,0-8.5,3.8-8.5,8.5v34.1 h-17.1V42.7c0-4.7-3.8-8.5-8.5-8.5H42.7c-4.7,0-8.5,3.8-8.5,8.5V256C34.1,260.7,38,264.5,42.7,264.5z M204.8,332.8h34.1v93.9h-34.1 V332.8z M332.5,349.8l85.3-0.3l0.3,68.5l-42.6,0.2l-42.7,0.2L332.5,349.8z M384.2,435.2l34.1-0.1l0.1,25.6l-34.1,0.1L384.2,435.2z M332.9,435.4l34.2-0.1l0.1,25.6h-34.1L332.9,435.4z M298.7,85.3h17.1v34.1h-17.1V85.3z M332.8,85.3H384v25.6h-51.2V85.3z M401.1,85.3h17.1v34.1h-17.1V85.3z M426.7,51.2v17.1H290.1V51.2H426.7z M153.6,51.2v34.1c0,4.7,3.8,8.5,8.5,8.5h30l65.7,82.1 c2.9,3.7,8.3,4.3,12,1.3c3.7-2.9,4.3-8.3,1.3-12l-66.4-83V51.2h68.3v25.6c0,4.7,3.8,8.5,8.5,8.5V128c0,4.7,3.8,8.5,8.5,8.5h34.1 c4.7,0,8.5-3.8,8.5-8.5H384c0,4.7,3.8,8.5,8.5,8.5h34.1c4.7,0,8.5-3.8,8.5-8.5V85.3c4.7,0,8.5-3.8,8.5-8.5V51.2h17.1v196.3h-31.4 l-83.1-58.2c-3.9-2.6-9.1-1.7-11.8,2.2s-1.8,9.1,2,11.8l81.7,57.2v29.7c0,4.7,3.8,8.5,8.5,8.5h34.1v162.1h-25.3l-0.2-34.2 c0-0.1,0-0.1,0-0.2s0-0.1,0-0.2l-0.4-85.4c0-4.7-3.8-8.5-8.5-8.5h0l-102.4,0.4c-2.3,0-4.4,0.9-6,2.5c-1.6,1.6-2.5,3.8-2.5,6.1 l0.6,119.4H204.8v-17.1h42.7c4.7,0,8.5-3.8,8.5-8.5V324.3c0-4.7-3.8-8.5-8.5-8.5h-42.7v-17.1h110.9c4.7,0,8.5-3.8,8.5-8.5V256 c0-4.7-3.8-8.5-8.5-8.5H204.8v-51.2c0-4.7-3.8-8.5-8.5-8.5h-34.1c-4.7,0-8.5,3.8-8.5,8.5v51.2H51.2v-17.1h42.7 c4.7,0,8.5-3.8,8.5-8.5V76.8c0-4.7-3.8-8.5-8.5-8.5H51.2V51.2H153.6z M51.2,85.3h34.1v128H51.2V85.3z"></path> </svg> 