<?xml version="1.0" encoding="UTF-8"?> <!-- Generator: Adobe Illustrator 25.2.0, SVG Export Plug-In . SVG Version: 6.00 Build 0) --> <svg xmlns="http://www.w3.org/2000/svg" xmlns:xlink="http://www.w3.org/1999/xlink" id="Слой_1" x="0px" y="0px" width="512px" height="512px" viewBox="0 0 512 512" style="enable-background:new 0 0 512 512;" xml:space="preserve"> <style type="text/css"> .st0{stroke:#FFFFFF;stroke-width:9;stroke-miterlimit:10;} .st1{fill:#FFFFFF;stroke:#000000;stroke-width:6;stroke-miterlimit:10;} .st2{fill:none;stroke:#000000;stroke-width:6;stroke-miterlimit:10;} </style> <g id="Out_line"> <path class="st0" d="M407.5,24.5c-4.5-5.4-11.2-8.5-18.2-8.5H253.5c-11.7,0-21.7,8.4-23.6,19.9L193.3,248H128 c-17.7,0-32,14.3-32,32v96l16,1.8V312h30.9l-8.9,68.3l15.9,1.8L159,312h73v176c0,4.4,3.6,8,8,8h24c4,0,7.4-3,7.9-7L295,312h18 l23.1,177c0.5,4,3.9,7,7.9,7h24c4.4,0,8-3.6,8-8l0-231.3l36.7-212.9v0C413.9,36.9,412,29.8,407.5,24.5z M245.6,38.6 c0.7-3.8,4-6.6,7.9-6.6h113.3c-0.1,0.4-0.2,0.7-0.3,1.1c-0.1,0.2-0.1,0.4-0.2,0.6c-0.2,0.7-0.3,1.3-0.4,2L329.3,248H209.5 L245.6,38.6z M112,296v-16c0-8.8,7.2-16,16-16h112c8.8,0,16,7.2,16,16v16H112z M257,480h-9V312h30.9L257,480z M360,480h-9 l-21.9-168H360L360,480z M396.9,41.1L396.9,41.1C396.9,41.1,396.9,41.1,396.9,41.1L396.9,41.1l-36.8,213.5 c-0.1,0.4-0.1,0.9-0.1,1.4v40h-88v-16c0-5.6-1.5-11.1-4.3-16H336c3.9,0,7.2-2.8,7.9-6.6l37.7-218.9c0.6-3.7,3.9-6.5,7.7-6.4 c4.3,0,7.8,3.5,7.8,7.8C397.1,40.2,397,40.7,396.9,41.1L396.9,41.1z"></path> <path class="st0" d="M121,480h-9v-82.2L96,396v92c0,4.4,3.6,8,8,8h24c4,0,7.4-3,7.9-7l14-87l-15.9-1.8L121,480z"></path> </g> <polyline class="st1" points="102.5,373.8 115.2,360.8 122.1,376.9 133.4,360.8 143.5,378.4 "></polyline> <polyline class="st2" points="141.9,407.6 132.8,390.7 123.8,405.8 115.5,388.1 102.8,403 "></polyline> </svg> 