<?xml version="1.0" encoding="UTF-8"?> <!-- Generator: Adobe Illustrator 25.2.0, SVG Export Plug-In . SVG Version: 6.00 Build 0) --> <svg xmlns="http://www.w3.org/2000/svg" xmlns:xlink="http://www.w3.org/1999/xlink" id="outline" x="0px" y="0px" width="512px" height="512px" viewBox="0 0 512 512" style="enable-background:new 0 0 512 512;" xml:space="preserve"> <style type="text/css"> .st0{stroke:#FFFFFF;stroke-width:8;stroke-miterlimit:10;} .st1{fill:none;stroke:#000000;stroke-width:8;stroke-miterlimit:10;} </style> <path class="st0" d="M449.8,308.9l28.3,35.6"></path> <path class="st0" d="M16,144v344c0,4.4,3.6,8,8,8c0,0,0,0,0,0h464c4.4,0,8-3.6,8-8c0,0,0,0,0,0V371v-2.1v2.1l0.3-3H303l26.9-56 l7.7-16l13.7-28.5c1.1-2.2,1-4.8-0.1-7l-32-64c-1.4-2.7-4.1-4.4-7.2-4.4h-32v-40c4.4,0,8-3.6,8-8c0,0,0,0,0,0V48 c0-17.7-14.3-32-32-32c-17.7,0-32,14.3-32,32v41.4l0,16.3V144H32L16,144z M240,48c0-8.8,7.2-16,16-16h0c8.8,0,16,7.2,16,16v0L240,48 L240,48z M240,64h32v72h-32V64z M264,152v96c0,4.4-3.6,8-8,8s-8-3.6-8-8v-96H264z M256,272c13.3,0,24-10.7,24-24v-40h27.1l28,56.1 l-63.9,133.4c-0.1,0.1-0.1,0.2-0.2,0.4c-3.6,8.5-13.4,12.5-21.8,8.9c-3.8-1.6-6.8-4.5-8.6-8.2l-63.6-134.4l28-56.1H232v40 C232,261.3,242.7,272,256,272z M208.4,368H96v-96h66.9L208.4,368z M160,160h72v32h-32c-3,0-5.8,1.7-7.2,4.4L163.1,256H160V160z M32,160h112v96H32V160z M32,272h48v96H32V272z M144,480H32v-96h112V480z M352,480H160l0-96h56l10.1,21.3 c7.7,16.3,27.2,23.3,43.5,15.5c7.2-3.4,12.9-9.3,16-16.7l9.7-20.2H352V480z M480,480H368v-96h112V480z"></path> <polyline class="st1" points="488.3,375.7 488.3,288.5 403.5,288.5 384.5,307.6 361.8,284.9 335.1,284.9 "></polyline> <polyline class="st1" points="24,160 24,64 74.3,64 96,76.7 113.6,68.8 228.6,68.8 "></polyline> <polyline class="st1" points="80,154.2 72.5,171.7 96,195.3 90.6,214.7 "></polyline> <polyline class="st1" points="215.3,485.2 208.4,470.1 215.3,444.1 192.3,425.3 186.9,411.4 "></polyline> <polyline class="st1" points="232,452 232,466.5 208.4,470.1 "></polyline> <polyline class="st1" points="438.6,375.7 458.6,408 442.3,417.5 424,438.6 433.8,456.8 "></polyline> <polyline class="st1" points="407.2,416.2 424,408 442.3,417.5 "></polyline> </svg> 