<?xml version="1.0" encoding="UTF-8"?> <!-- Generator: Adobe Illustrator 25.2.0, SVG Export Plug-In . SVG Version: 6.00 Build 0) --> <svg xmlns="http://www.w3.org/2000/svg" xmlns:xlink="http://www.w3.org/1999/xlink" id="Capa_1" x="0px" y="0px" width="512px" height="512px" viewBox="0 0 512 512" style="enable-background:new 0 0 512 512;" xml:space="preserve"> <style type="text/css"> .st0{stroke:#FFFFFF;stroke-width:13;stroke-miterlimit:10;} </style> <g id="XMLID_1034_"> <g id="XMLID_2047_"> <path id="XMLID_2053_" class="st0" d="M414.2,103.6l66,34.3L256,254.6L31.8,137.9L256,21.3l78.4,40.8L414.2,103.6z M343.7,44.3 l-83-43.2c-2.9-1.5-6.3-1.5-9.2,0L5.5,129.1c-3.3,1.7-5.4,5.1-5.4,8.9s2.1,7.1,5.4,8.9l96.4,50.2L5.5,247.1 c-3.3,1.7-5.4,5.1-5.4,8.9c0,3.7,2.1,7.1,5.4,8.9l96.4,50.2L5.5,365.2c-3.3,1.7-5.4,5.1-5.4,8.9c0,3.7,2.1,7.1,5.4,8.9 l245.9,127.9c1.4,0.8,3,1.1,4.6,1.1c1.6,0,3.2-0.4,4.6-1.1l245.9-127.9c3.3-1.7,5.4-5.1,5.4-8.9c0-3.7-2.1-7.1-5.4-8.9L410.1,315 l96.4-50.2c3.3-1.7,5.4-5.1,5.4-8.9v0c0-3.7-2.1-7.1-5.4-8.9L410.1,197l96.4-50.2c3.3-1.7,5.4-5.1,5.4-8.9s-2.1-7.1-5.4-8.9 l-83-43.2L343.7,44.3z M260.6,274.7l127.8-66.5l29.8,15.5L194.4,340.6l-39.9-20.8l91.8-47.8l5.1,2.7c1.4,0.8,3,1.1,4.6,1.1 C257.6,275.9,259.2,275.5,260.6,274.7z M224.6,260.8l-91.8,47.8l-39.7-20.7l91.8-47.8L224.6,260.8z M123.6,208.2l39.7,20.7 l-91.8,47.8L31.8,256L123.6,208.2z M480.2,374.1L256,490.7L31.8,374.1l91.8-47.8l127.8,66.5c1.4,0.8,3,1.1,4.6,1.1 c1.6,0,3.2-0.4,4.6-1.1l127.8-66.5L480.2,374.1z M256,372.7l-40-20.8L439.9,235l40.4,21L256,372.7z"></path> </g> </g> </svg> 